HIERARCHY
ROOT Hips
{
	OFFSET 52.388401 8.002261 53.555801
	CHANNELS 6 Xposition Yposition Zposition Xrotation Yrotation Zrotation
	JOINT spine
	{
		OFFSET 0.000000 -0.393702 6.846371
		CHANNELS 3 Xrotation Yrotation Zrotation
		JOINT spine1
		{
			OFFSET 0.000000 -0.000001 9.496212
			CHANNELS 3 Xrotation Yrotation Zrotation
			JOINT spine2
			{
				OFFSET 0.000000 -0.000001 9.099091
				CHANNELS 3 Xrotation Yrotation Zrotation
				JOINT Neck
				{
					OFFSET 0.000000 -1.113784 23.361198
					CHANNELS 3 Xrotation Yrotation Zrotation
					JOINT Head
					{
						OFFSET 0.000000 -0.000001 7.058022
						CHANNELS 3 Xrotation Yrotation Zrotation
						End Site
						{
							OFFSET 0.000000 5.634187 17.084404
						}
					}
				}
				JOINT RightShoulder
				{
					OFFSET -3.831360 0.533489 9.826309
					CHANNELS 3 Xrotation Yrotation Zrotation
					JOINT RightArm
					{
						OFFSET 0.000000 -0.000002 12.888100
						CHANNELS 3 Xrotation Yrotation Zrotation
						JOINT RightArmRoll
						{
							OFFSET 0.000000 -0.000001 6.506172
							CHANNELS 3 Xrotation Yrotation Zrotation
							JOINT RightForeArm
							{
								OFFSET 0.000000 -0.000004 18.950096
								CHANNELS 3 Xrotation Yrotation Zrotation
								JOINT RightForeArmRoll
								{
									OFFSET 0.000000 -0.000001 7.300919
									CHANNELS 3 Xrotation Yrotation Zrotation
									JOINT RightHand
									{
										OFFSET 0.000000 -0.000002 14.651398
										CHANNELS 3 Xrotation Yrotation Zrotation
										End Site
										{
											OFFSET 0.000000 0.000000 0.100006
										}
									}
								}
							}
						}
					}
				}
				JOINT LeftShoulder
				{
					OFFSET 3.831360 0.533489 9.826309
					CHANNELS 3 Xrotation Yrotation Zrotation
					JOINT LeftArm
					{
						OFFSET 0.000000 -0.000002 12.888100
						CHANNELS 3 Xrotation Yrotation Zrotation
						JOINT LeftArmRoll
						{
							OFFSET 0.000000 -0.000001 6.506172
							CHANNELS 3 Xrotation Yrotation Zrotation
							JOINT LeftForeArm
							{
								OFFSET 0.000000 -0.000004 18.950096
								CHANNELS 3 Xrotation Yrotation Zrotation
								JOINT LeftForeArmRoll
								{
									OFFSET 0.000000 -0.000001 7.300919
									CHANNELS 3 Xrotation Yrotation Zrotation
									JOINT LeftHand
									{
										OFFSET 0.000000 -0.000002 14.651398
										CHANNELS 3 Xrotation Yrotation Zrotation
										End Site
										{
											OFFSET 0.000000 0.000000 0.100006
										}
									}
								}
							}
						}
					}
				}
			}
		}
	}
	JOINT RightUpLeg
	{
		OFFSET -6.068371 0.933477 -1.112782
		CHANNELS 3 Xrotation Yrotation Zrotation
		JOINT RightUpLegRoll
		{
			OFFSET 0.000000 -0.000003 17.179600
			CHANNELS 3 Xrotation Yrotation Zrotation
			JOINT RightLeg
			{
				OFFSET 0.000000 0.000004 -21.274300
				CHANNELS 3 Xrotation Yrotation Zrotation
				JOINT RightLegRoll
				{
					OFFSET 0.000000 -0.000004 21.343903
					CHANNELS 3 Xrotation Yrotation Zrotation
					JOINT RightFoot
					{
						OFFSET 0.000000 -0.000003 17.765198
						CHANNELS 3 Xrotation Yrotation Zrotation
						JOINT RightToeBase
						{
							OFFSET 0.000000 -0.000002 14.850800
							CHANNELS 3 Xrotation Yrotation Zrotation
							End Site
							{
								OFFSET 0.006294 0.829002 7.192139
							}
						}
					}
				}
			}
		}
	}
	JOINT LeftUpLeg
	{
		OFFSET 6.068371 0.933477 -1.112782
		CHANNELS 3 Xrotation Yrotation Zrotation
		JOINT LeftUpLegRoll
		{
			OFFSET 0.000000 -0.000003 17.179699
			CHANNELS 3 Xrotation Yrotation Zrotation
			JOINT LeftLeg
			{
				OFFSET 0.000000 -0.000004 21.274200
				CHANNELS 3 Xrotation Yrotation Zrotation
				JOINT LeftLegRoll
				{
					OFFSET 0.000000 -0.000003 21.541199
					CHANNELS 3 Xrotation Yrotation Zrotation
					JOINT LeftFoot
					{
						OFFSET 0.000000 -0.000003 17.567894
						CHANNELS 3 Xrotation Yrotation Zrotation
						JOINT LeftToeBase
						{
							OFFSET 0.000000 -0.000003 14.850800
							CHANNELS 3 Xrotation Yrotation Zrotation
							End Site
							{
								OFFSET -0.028210 0.829004 7.192123
							}
						}
					}
				}
			}
		}
	}
}
MOTION
Frames: 6
Frame Time: 0.041667
50.383995 -19.886303 86.753204 2.671938 -0.207540 -3.356325 -1.906297 -0.979554 0.995369 0.213569 -1.953147 1.958399 1.858634 -1.929516 1.981752 5.484515 19.319979 -2.744748 12.033660 -16.022662 -2.397815 -9.006779 -49.741788 -9.967089 123.047743 -27.122143 109.581281 0.000010 0.000004 0.000007 2.993736 -27.745755 2.748683 0.000001 0.000011 -3.008061 -5.000180 -8.000252 0.000080 -42.784114 76.724232 47.881914 99.110867 42.899698 -106.721829 0.000005 0.000002 0.000004 0.220307 27.054234 -0.662425 0.000002 -0.000013 3.052071 -5.000158 8.000188 -0.000081 -18.845585 -175.450525 -0.276280 -179.999991 0.000005 -0.891007 159.860646 -4.877073 -1.327817 -0.000001 -0.000002 0.248056 68.555230 6.807866 2.375778 25.456851 -7.355621 -0.000003 -17.346078 176.221476 1.088925 -0.000003 -0.000004 -0.747362 -21.931386 1.272346 1.128811 -0.000003 -0.000002 -0.324506 71.399601 -5.641496 -5.410977 25.456952 7.355614 -0.002131 
50.384995 -19.886509 86.762207 2.674635 -0.203725 -3.350043 -1.906128 -0.979506 0.995273 0.213454 -1.955137 1.959513 1.858526 -1.931505 1.982883 5.617012 19.317551 -2.777055 12.080861 -16.020774 -2.400996 -8.994101 -49.754100 -9.952164 123.032443 -27.206998 109.660975 0.000009 0.000004 0.000007 2.923301 -27.735865 2.727159 0.000002 0.000011 -3.008062 -5.000179 -8.000248 0.000080 -42.866759 76.742762 47.967548 99.020285 42.982295 -106.730148 -0.000001 0.000001 0.000002 0.219949 27.007133 -0.641952 -0.000003 -0.000013 3.052871 -5.000152 8.000190 -0.000080 -18.854141 -175.482955 -0.325655 -179.999991 0.000005 -0.891007 159.842901 -4.834239 -1.324872 -0.000001 -0.000002 0.248427 68.550832 6.797498 2.402679 25.456861 -7.355622 -0.000002 -17.361528 176.216053 1.088164 -0.000004 -0.000004 -0.746650 -21.953884 1.271161 1.129299 -0.000003 -0.000002 -0.324507 71.408945 -5.641203 -5.413357 25.456952 7.355616 -0.002131 
50.384792 -19.885105 86.760910 2.677165 -0.199937 -3.343981 -1.905959 -0.979433 0.995198 0.213338 -1.957167 1.960736 1.858409 -1.933524 1.984124 5.748170 19.315667 -2.809108 12.126844 -16.019432 -2.404313 -8.980852 -49.766469 -9.936522 123.017758 -27.292396 109.742582 0.000006 0.000003 0.000007 2.854110 -27.725208 2.705783 0.000001 0.000010 -3.008062 -5.000184 -8.000244 0.000081 -42.952399 76.762051 48.056238 98.928453 43.064660 -106.737764 0.000002 0.000001 0.000003 0.219608 26.959838 -0.621053 0.000000 -0.000013 3.053681 -5.000159 8.000185 -0.000083 -18.862677 -175.516327 -0.376837 -179.999991 0.000005 -0.891007 159.824596 -4.789511 -1.321269 -0.000001 -0.000002 0.248805 68.546091 6.786748 2.430627 25.456860 -7.355623 -0.000001 -17.376898 176.209701 1.087622 -0.000005 -0.000004 -0.745926 -21.976979 1.269972 1.129801 -0.000003 -0.000002 -0.324507 71.418698 -5.640925 -5.415718 25.456952 7.355615 -0.002131 
50.390797 -19.884502 86.761002 2.679575 -0.196171 -3.338070 -1.905786 -0.979344 0.995155 0.213219 -1.959207 1.962050 1.858281 -1.935564 1.985447 5.878394 19.314016 -2.840976 12.172018 -16.018520 -2.407714 -8.967160 -49.778753 -9.920326 123.003593 -27.378267 109.825583 0.000003 0.000004 0.000008 2.785796 -27.714206 2.684526 -0.000003 0.000009 -3.008058 -5.000178 -8.000245 0.000080 -43.039529 76.781694 48.146461 98.835604 43.146933 -106.744662 0.000002 0.000001 0.000004 0.219264 26.912538 -0.599856 0.000002 -0.000012 3.054500 -5.000157 8.000189 -0.000082 -18.871195 -175.550656 -0.429202 -179.999991 0.000005 -0.891007 159.805922 -4.743847 -1.318309 -0.000002 -0.000002 0.249191 68.541263 6.775665 2.459416 25.456858 -7.355623 -0.000003 -17.392264 176.203321 1.087035 -0.000005 -0.000004 -0.745194 -22.000377 1.268770 1.130305 -0.000003 -0.000002 -0.324506 71.428684 -5.640685 -5.418173 25.456953 7.355615 -0.002132 
50.388096 -19.884007 86.764603 2.681914 -0.192415 -3.332257 -1.905607 -0.979246 0.995120 0.213098 -1.961267 1.963403 1.858163 -1.937612 1.986819 6.008086 19.312597 -2.872754 12.216790 -16.017719 -2.411176 -8.953213 -49.790966 -9.903810 122.989796 -27.464522 109.909362 0.000004 0.000004 0.000007 2.717996 -27.702856 2.663352 0.000000 0.000009 -3.008064 -5.000177 -8.000246 0.000083 -43.128024 76.801632 48.238068 98.742289 43.229053 -106.751356 0.000003 0.000000 0.000003 0.218922 26.865241 -0.578490 -0.000004 -0.000014 3.055321 -5.000155 8.000189 -0.000082 -18.879587 -175.585900 -0.482089 -179.999991 0.000005 -0.891007 159.787139 -4.698189 -1.314330 -0.000001 -0.000002 0.249577 68.536304 6.764464 2.488591 25.456858 -7.355622 -0.000002 -17.407535 176.196956 1.086413 -0.000004 -0.000004 -0.744458 -22.023976 1.267577 1.130816 -0.000004 -0.000002 -0.324506 71.438875 -5.640447 -5.420720 25.456953 7.355616 -0.002132 
50.381195 -19.877605 86.761505 2.684246 -0.188662 -3.326465 -1.905429 -0.979146 0.995087 0.212977 -1.963317 1.964767 1.858046 -1.939662 1.988201 6.137638 19.311081 -2.904500 12.261353 -16.017021 -2.414662 -8.939229 -49.803270 -9.887244 122.976231 -27.551096 109.993086 0.000009 0.000003 0.000008 2.650338 -27.691366 2.642224 -0.000002 0.000013 -3.008059 -5.000179 -8.000248 0.000078 -43.217011 76.821603 48.330180 98.648825 43.311039 -106.757967 0.000001 0.000001 0.000002 0.218571 26.817834 -0.557080 -0.000000 -0.000014 3.056151 -5.000162 8.000186 -0.000081 -18.888017 -175.620215 -0.535515 -179.999991 0.000005 -0.891007 159.768261 -4.651603 -1.310995 -0.000001 -0.000002 0.249965 68.531331 6.753220 2.517856 25.456858 -7.355621 -0.000002 -17.422785 176.191546 1.085487 -0.000005 -0.000004 -0.743720 -22.047671 1.266372 1.131325 -0.000004 -0.000002 -0.324506 71.449161 -5.640210 -5.423161 25.456957 7.355615 -0.002131 
